<?xml version="1.0" encoding="utf-8"?>
<!-- Generator: Adobe Illustrator 19.2.1, SVG Export Plug-In . SVG Version: 6.00 Build 0)  -->
<svg version="1.1" xmlns="http://www.w3.org/2000/svg" xmlns:xlink="http://www.w3.org/1999/xlink" x="0px" y="0px" width="80px" height="80px"
	 viewBox="0 0 80 80" style="enable-background:new 0 0 80 80;" xml:space="preserve">
<style type="text/css">
	.st0{display:none;fill:#161919;}
	.st1{fill:#65C1C2;}
	.st2{fill:#FFFFFF;}
</style>
<g id="Ebene_1">
	<rect class="st0" width="79.9" height="79.9"/>
	<g id="Logo">
		<path id="triangle" class="st1" d="M22.1,65.5l-11,11l-11-11L22.1,65.5z"/>
		<path id="here" class="st2" d="M38.2,40.5c-2.3-2.7-2.2-4.2-0.8-5.6c1.7-1.7,3.5-1,5.5,0.9L38.2,40.5z M61.8,10.5
			c1.7-1.7,3.5-1,5.5,0.9l-4.7,4.7C60.2,13.4,60.3,12,61.8,10.5z M76,15.3c-2.1,3.2-5.9,8.4-9.8,4.5l9.9-9.9C75.2,9,74.6,8.2,74,7.7
			c-5.3-5.3-11.3-5.4-16-0.7c-3.1,3.1-4,6.7-3.1,10.1l-3.1-3.5C51,14,47.2,17.4,50,22.4l-3.5-2.9l-4.7,4.7l6.4,6.4
			c-4.9-3.9-10.2-3.5-14.4,0.7c-4.5,4.5-4.2,10-0.8,14.5l-0.7-0.7c-4.5-4.5-9.4-2.9-11.8-0.5c-1.9,1.9-3,4.4-2.5,6.2l-9.7-9.7
			l-5.2,5.2l19.2,19.2h10.3l-6.9-6.9c-3.6-3.7-3.7-5.6-1.9-7.4c1.7-1.7,3.7-0.6,7.2,2.8l6.8,6.8l5.1-5.1l-6.5-6.5
			c4.7,3.5,10.3,3.7,15.3-1.3c0,0,0.1-0.1,0.1-0.1l0,0c3.1-2.8,4-5.6,4-5.6l-3.9-2.6c-2.1,3.2-5.8,8.4-9.7,4.5l9.9-9.9l6.2,6.2
			l5.4-5.4l-7.7-7.7c-3.6-3.6-1.5-7,0-8.3c0.7,1.5,1.7,2.9,3,4.2c5,5,11.4,6,17.1,0.4c0,0,0.1-0.1,0.1-0.1l0,0c3.1-2.8,4-5.6,4-5.6
			L76,15.3z"/>
	</g>
</g>
<g id="Ebene_2">
</g>
</svg>
